<svg xmlns="http://www.w3.org/2000/svg" version="1.1" xmlns:xlink="http://www.w3.org/1999/xlink" width="512" height="512" x="0" y="0" viewBox="0 0 682.667 682.667" style="enable-background:new 0 0 512 512" xml:space="preserve" class=""><g><defs><clipPath id="a" clipPathUnits="userSpaceOnUse"><path d="M0 512h512V0H0Z" fill="#FEBF05" opacity="1" data-original="#000000" class=""></path></clipPath><clipPath id="b" clipPathUnits="userSpaceOnUse"><path d="M0 512h512V0H0Z" fill="#FEBF05" opacity="1" data-original="#000000" class=""></path></clipPath></defs><path d="m0 0 19.041 55.852" style="stroke-width:15;stroke-linecap:round;stroke-linejoin:round;stroke-miterlimit:10;stroke-dasharray:none;stroke-opacity:1" transform="matrix(1.33333 0 0 -1.33333 474.283 293.449)" fill="none" stroke="#FEBF05" stroke-width="15" stroke-linecap="round" stroke-linejoin="round" stroke-miterlimit="10" stroke-dasharray="none" stroke-opacity="" data-original="#000000" class="" opacity="1"></path><g clip-path="url(#a)" transform="matrix(1.33333 0 0 -1.33333 0 682.667)"><path d="m0 0 81.991 240.508" style="stroke-width:15;stroke-linecap:round;stroke-linejoin:round;stroke-miterlimit:10;stroke-dasharray:none;stroke-opacity:1" transform="translate(261.467 15.46)" fill="none" stroke="#FEBF05" stroke-width="15" stroke-linecap="round" stroke-linejoin="round" stroke-miterlimit="10" stroke-dasharray="none" stroke-opacity="" data-original="#000000" class="" opacity="1"></path><path d="m0 0 69.989-205.301" style="stroke-width:15;stroke-linecap:round;stroke-linejoin:round;stroke-miterlimit:10;stroke-dasharray:none;stroke-opacity:1" transform="translate(180.551 220.74)" fill="none" stroke="#FEBF05" stroke-width="15" stroke-linecap="round" stroke-linejoin="round" stroke-miterlimit="10" stroke-dasharray="none" stroke-opacity="" data-original="#000000" class="" opacity="1"></path></g><path d="m0 0 30.138-88.406" style="stroke-width:15;stroke-linecap:round;stroke-linejoin:round;stroke-miterlimit:10;stroke-dasharray:none;stroke-opacity:1" transform="matrix(1.33333 0 0 -1.33333 183.27 219.78)" fill="none" stroke="#FEBF05" stroke-width="15" stroke-linecap="round" stroke-linejoin="round" stroke-miterlimit="10" stroke-dasharray="none" stroke-opacity="" data-original="#000000" class="" opacity="1"></path><g clip-path="url(#b)" transform="matrix(1.33333 0 0 -1.33333 0 682.667)"><path d="M0 0h-212.299a32.068 32.068 0 0 1-23.639-10.399l-64.136-69.967c-8.341-9.099-8.754-22.936-.97-32.515l184.194-226.702c5.518-6.79 15.883-6.79 21.401 0L88.745-112.881c7.784 9.579 7.371 23.416-.97 32.515L23.639-10.399A32.068 32.068 0 0 1 0 0Z" style="stroke-width:15;stroke-linecap:round;stroke-linejoin:round;stroke-miterlimit:10;stroke-dasharray:none;stroke-opacity:1" transform="translate(362.15 352.175)" fill="none" stroke="#FEBF05" stroke-width="15" stroke-linecap="round" stroke-linejoin="round" stroke-miterlimit="10" stroke-dasharray="none" stroke-opacity="" data-original="#000000" class="" opacity="1"></path><path d="m0 0 88.188 96.205L176.376 0" style="stroke-width:15;stroke-linecap:round;stroke-linejoin:round;stroke-miterlimit:10;stroke-dasharray:none;stroke-opacity:1" transform="translate(167.812 255.97)" fill="none" stroke="#FEBF05" stroke-width="15" stroke-linecap="round" stroke-linejoin="round" stroke-miterlimit="10" stroke-dasharray="none" stroke-opacity="" data-original="#000000" class="" opacity="1"></path><path d="M0 0h400.854" style="stroke-width:15;stroke-linecap:round;stroke-linejoin:round;stroke-miterlimit:10;stroke-dasharray:none;stroke-opacity:1" transform="translate(55.573 255.97)" fill="none" stroke="#FEBF05" stroke-width="15" stroke-linecap="round" stroke-linejoin="round" stroke-miterlimit="10" stroke-dasharray="none" stroke-opacity="" data-original="#000000" class="" opacity="1"></path><path d="M0 0v104.222" style="stroke-width:15;stroke-linecap:round;stroke-linejoin:round;stroke-miterlimit:10;stroke-dasharray:none;stroke-opacity:1" transform="translate(256 400.278)" fill="none" stroke="#FEBF05" stroke-width="15" stroke-linecap="round" stroke-linejoin="round" stroke-miterlimit="10" stroke-dasharray="none" stroke-opacity="" data-original="#000000" class="" opacity="1"></path><path d="m0 0-32.068 64.137" style="stroke-width:15;stroke-linecap:round;stroke-linejoin:round;stroke-miterlimit:10;stroke-dasharray:none;stroke-opacity:1" transform="translate(183.846 392.26)" fill="none" stroke="#FEBF05" stroke-width="15" stroke-linecap="round" stroke-linejoin="round" stroke-miterlimit="10" stroke-dasharray="none" stroke-opacity="" data-original="#000000" class="" opacity="1"></path><path d="m0 0 32.068 64.137" style="stroke-width:15;stroke-linecap:round;stroke-linejoin:round;stroke-miterlimit:10;stroke-dasharray:none;stroke-opacity:1" transform="translate(328.154 392.26)" fill="none" stroke="#FEBF05" stroke-width="15" stroke-linecap="round" stroke-linejoin="round" stroke-miterlimit="10" stroke-dasharray="none" stroke-opacity="" data-original="#000000" class="" opacity="1"></path></g></g></svg>